<svg xmlns="http://www.w3.org/2000/svg" viewBox="0 0 210 270" fill="none" stroke="white" stroke-width="7" stroke-linecap="round" stroke-linejoin="round">
  <!-- Main fist outline -->
  <path d="
    M 60 252
    C 48 250 42 240 40 228
    L 36 198
    C 30 180 20 160 18 140
    C 16 120 24 108 36 104
    C 44 101 50 106 54 116
    L 48 76
    C 48 52 56 42 68 42
    C 80 42 88 52 88 76
    C 88 48 98 32 110 32
    C 122 32 132 48 132 76
    C 132 52 140 38 150 38
    C 160 38 168 52 168 76
    C 168 56 174 46 184 46
    C 194 46 200 56 200 76
    L 200 172
    C 200 202 190 228 178 240
    C 170 250 162 252 150 252
    Z
  " />
  <!-- Thumb crossing the fist -->
  <path d="
    M 36 198
    C 56 182 86 164 108 156
    C 130 148 138 134 138 116
  " />
  <!-- Finger separations -->
  <line x1="88" y1="76" x2="88" y2="108" />
  <line x1="132" y1="76" x2="132" y2="106" />
  <line x1="168" y1="76" x2="168" y2="106" />
  <!-- Wrist cuff -->
  <ellipse cx="105" cy="256" rx="50" ry="14" />
</svg>
