<svg width="32" height="42" viewBox="0 0 32 42" fill="none" xmlns="http://www.w3.org/2000/svg">
<path d="M31.4458 29.2858C31.4411 29.1554 31.357 28.8524 31.357 28.8524L23.1537 4.55798C23.1537 4.55798 23.0223 4.19392 23.0128 4.16926C22.943 3.99075 22.8542 3.82632 22.763 3.67129C22.634 3.44346 22.3818 3.1886 22.3818 3.1886L20.0388 0.641244C20.0388 0.641244 19.9678 0.567254 19.9571 0.560206C19.879 0.48739 19.7879 0.433366 19.6837 0.400482C19.66 0.393438 19.6387 0.38639 19.615 0.381694L19.5416 0.371124C19.5167 0.369946 19.4942 0.367598 19.4682 0.367598C19.4658 0.367598 19.4623 0.367598 19.4587 0.367598C19.0598 0.371124 18.7353 0.695268 18.7353 1.09575C18.7353 1.09928 18.7377 1.15565 18.7389 1.17209C18.7413 1.19675 18.7425 1.22142 18.7496 1.24725C18.7555 1.28131 18.8668 1.75696 18.8668 1.75696L24.4572 27.3527C24.4513 27.328 24.4998 27.5171 24.4714 27.6204C24.43 27.7602 24.3684 27.8412 24.3684 27.8412C24.3494 27.8729 18.6549 36.1551 18.6549 36.1551L16.6138 33.374C16.6138 33.374 21.1186 27.5418 21.1422 27.5042C21.1908 27.4361 21.2429 27.3409 21.2962 27.1953C21.366 27.005 21.3423 26.7713 21.3352 26.7067L17.967 1.33064L17.9492 1.21085C17.909 1.00649 17.8356 0.813886 17.7243 0.641244L17.7208 0.627148C17.6462 0.516752 17.5621 0.42867 17.4615 0.340588C17.2081 0.116269 16.892 0.00822108 16.5617 0H14.8817C14.5514 0.00822108 14.2401 0.116269 13.9831 0.340588C13.8825 0.42867 13.7984 0.515578 13.725 0.627148L13.7191 0.641244C13.6102 0.812712 13.5344 1.00649 13.4954 1.21085L13.4776 1.33064L10.1118 26.7067C10.1035 26.7701 10.0798 27.005 10.1496 27.1953C10.2041 27.3421 10.2574 27.4361 10.3047 27.5042C10.3284 27.5418 14.832 33.374 14.832 33.374L12.7921 36.1538C12.7921 36.1538 7.0999 27.8717 7.07858 27.8401C7.07858 27.8401 7.01702 27.759 6.9756 27.6193C6.94599 27.5171 6.99453 27.3268 6.98862 27.3515L12.5814 1.75579C12.5814 1.75579 12.6939 1.28014 12.6986 1.24608C12.701 1.22024 12.7045 1.19558 12.7069 1.17091C12.7069 1.15447 12.7105 1.0981 12.7105 1.09458C12.7105 0.694094 12.386 0.369946 11.9871 0.366424C11.9871 0.366424 11.9291 0.367598 11.9054 0.369946C11.9042 0.369946 11.8285 0.380516 11.8285 0.380516C11.8071 0.385216 11.7846 0.392264 11.761 0.399308C11.6579 0.432192 11.5644 0.486216 11.4851 0.559032C11.4804 0.56608 11.4046 0.64007 11.4046 0.64007L9.0652 3.1886C9.0652 3.1886 8.80828 3.44464 8.68041 3.67129C8.58927 3.82514 8.50282 3.99075 8.43061 4.16926C8.42234 4.19392 8.29565 4.55798 8.29565 4.55798L0.091161 28.8524C0.091161 28.8524 0.00591956 29.1554 0.00236783 29.2858C0.00236783 29.2964 0 29.3093 0 29.3187C0 29.3797 0.00710347 29.4514 0.0189425 29.5324C0.053276 29.7297 0.12431 29.8847 0.247437 30.0433L8.79054 41.2085C8.97997 41.4483 9.12558 41.5129 9.20609 41.5457C9.36472 41.6267 9.51509 41.6562 9.6749 41.6562C9.80277 41.6562 9.96616 41.6339 10.1769 41.5352C10.2609 41.4965 10.4137 41.3978 10.5652 41.2075L12.7377 38.3947C12.7377 38.3947 14.7704 41.1183 14.8036 41.1652C14.8545 41.2394 14.993 41.4237 15.2144 41.5352C15.3375 41.5975 15.5092 41.6621 15.7188 41.6621C15.7188 41.6621 15.7235 41.6608 15.727 41.6608C15.7306 41.6608 15.7318 41.6621 15.7318 41.6621C15.9425 41.6621 16.1166 41.5985 16.2361 41.5352C16.4611 41.4237 16.6008 41.2394 16.6481 41.1652C16.6848 41.1183 18.7141 38.3947 18.7141 38.3947L20.8865 41.2075C21.0369 41.3978 21.192 41.4952 21.2748 41.5352C21.4868 41.6339 21.6501 41.6562 21.7768 41.6562C21.9378 41.6562 22.0858 41.6257 22.2468 41.5457C22.3273 41.5129 22.473 41.447 22.6636 41.2085L31.2055 30.0433C31.325 29.8847 31.3961 29.7297 31.4328 29.5324C31.4458 29.4514 31.4506 29.3797 31.4506 29.3187C31.4458 29.3093 31.4458 29.2964 31.4458 29.2858ZM9.72226 40.4418L2.34296 29.6017C2.29323 29.5148 2.27429 29.4326 2.27429 29.3351C2.27429 29.2682 2.28613 29.213 2.29442 29.1765L9.43221 5.05949C9.45232 4.98783 9.476 4.91621 9.50086 4.84573C9.61216 4.56385 9.75896 4.31018 9.93182 4.09291L11.4448 2.28898L5.04227 27.2622C5.04227 27.2622 5.01148 27.3761 4.99964 27.4443C4.99256 27.4877 4.9878 27.5864 4.9878 27.6345C4.99138 27.853 5.06238 28.0655 5.17841 28.2323L11.9835 37.3718L9.72226 40.4418ZM12.0368 27.1319C11.9741 27.0414 11.9374 26.9322 11.9374 26.8124C11.9374 26.7807 11.9421 26.7267 11.9421 26.7267C11.9421 26.7267 14.7219 1.64304 14.7219 1.64069C14.7231 1.6266 14.7278 1.61485 14.7302 1.60311C14.7645 1.43282 14.9066 1.30832 15.0818 1.30832H16.4634C16.6315 1.30832 16.7748 1.43282 16.8139 1.60311C16.8174 1.61485 16.8198 1.6266 16.8198 1.64069C16.8198 1.64186 19.5996 26.7267 19.5996 26.7267C19.5996 26.7267 19.6044 26.7807 19.6044 26.8124C19.6044 26.9322 19.5677 27.0414 19.5061 27.1319L15.7732 32.2137L12.0368 27.1319ZM15.772 40.4572L13.6292 37.3459L15.7709 34.5707L17.9125 37.3459L15.772 40.4572ZM29.1988 29.6005L21.8194 40.4405L19.5629 37.3705C19.5629 37.3705 26.3609 28.2312 26.3633 28.2312C26.4817 28.0644 26.5539 27.8518 26.5551 27.6334C26.5551 27.5852 26.5504 27.4854 26.5409 27.4431C26.5338 27.375 26.5006 27.2611 26.5006 27.2611L20.098 2.2878L21.6111 4.09173C21.7839 4.309 21.9296 4.56271 22.0373 4.84455C22.0645 4.91503 22.0906 4.98665 22.1119 5.05831L29.2461 29.1754C29.2556 29.2118 29.2686 29.2658 29.2686 29.3339C29.2686 29.4314 29.2485 29.5136 29.1988 29.6005Z" fill="#0B0C0F"/>
</svg>
