<svg preserveAspectRatio="none" width="100%" height="100%" overflow="visible" style="display: block;" viewBox="0 0 32 32" fill="none" xmlns="http://www.w3.org/2000/svg">
<g id="Frame">
<path id="Union" d="M16 1.33496C16.7001 1.33496 17.3874 1.51912 17.9941 1.86816L17.9951 1.86719L27.3281 7.20117L27.333 7.2041C27.9405 7.55483 28.4458 8.05872 28.7969 8.66602C29.1479 9.27329 29.3323 9.96264 29.333 10.6641V21.333C29.3323 22.0344 29.1479 22.7238 28.7969 23.3311C28.4458 23.9383 27.9405 24.4422 27.333 24.793L27.3281 24.7959L17.9951 30.1299L17.9941 30.1289C17.4332 30.4516 16.8033 30.6306 16.1582 30.6562C16.1063 30.6624 16.0536 30.667 16 30.667C15.9461 30.667 15.8931 30.6625 15.8408 30.6562C15.1958 30.6305 14.5657 30.4517 14.0049 30.1289L4.67188 24.7959L4.66699 24.793C4.05952 24.4422 3.55416 23.9383 3.20312 23.3311C2.85213 22.7238 2.66771 22.0344 2.66699 21.333V10.6641C2.66771 9.96264 2.85211 9.27329 3.20312 8.66602C3.55416 8.05872 4.05952 7.55483 4.66699 7.2041L4.67188 7.20117L14.0049 1.86719V1.86816C14.6118 1.51885 15.2997 1.33496 16 1.33496ZM5.33301 21.3301C5.33325 21.5639 5.39571 21.7937 5.5127 21.9961C5.62872 22.1968 5.79491 22.3637 5.99512 22.4805L14.667 27.4365V16.7695L5.33301 11.4062V21.3301ZM17.333 16.7695V27.4365L26.0049 22.4805C26.2051 22.3637 26.3713 22.1968 26.4873 21.9961C26.604 21.7941 26.6665 21.5653 26.667 21.332V11.4053L17.333 16.7695ZM16 4.00098C15.766 4.00098 15.5357 4.06266 15.333 4.17969L15.3281 4.18262L6.69727 9.11426L15.999 14.46L25.3008 9.11426L16.6719 4.18262L16.667 4.17969C16.4643 4.06266 16.234 4.00098 16 4.00098Z" fill="url(#paint0_linear_143_2481)"/>
</g>
<defs>
<linearGradient id="paint0_linear_143_2481" x1="29.333" y1="16.001" x2="2.66699" y2="16.001" gradientUnits="userSpaceOnUse">
<stop stop-color="#F0532A"/>
<stop offset="0.32" stop-color="#ED4485"/>
<stop offset="0.68" stop-color="#B360A6"/>
<stop offset="1" stop-color="#4585C5"/>
</linearGradient>
</defs>
</svg>
