<svg preserveAspectRatio="none" width="100%" height="100%" overflow="visible" style="display: block;" viewBox="0 0 16 16" fill="none" xmlns="http://www.w3.org/2000/svg">
<g id="Frame">
<path id="Vector" d="M13.3333 8.66664C13.3333 12 11 13.6666 8.22667 14.6333C8.08144 14.6825 7.92369 14.6802 7.78 14.6266C5 13.6666 2.66667 12 2.66667 8.66664V3.99997C2.66667 3.82316 2.7369 3.65359 2.86193 3.52857C2.98695 3.40355 3.15652 3.33331 3.33333 3.33331C4.66667 3.33331 6.33333 2.53331 7.49333 1.51997C7.63457 1.39931 7.81424 1.33301 8 1.33301C8.18576 1.33301 8.36543 1.39931 8.50667 1.51997C9.67333 2.53997 11.3333 3.33331 12.6667 3.33331C12.8435 3.33331 13.013 3.40355 13.1381 3.52857C13.2631 3.65359 13.3333 3.82316 13.3333 3.99997V8.66664Z" stroke="var(--stroke-0, #4984C4)" stroke-width="1.33333" stroke-linecap="round" stroke-linejoin="round"/>
<path id="Vector_2" d="M6 8L7.33333 9.33333L10 6.66667" stroke="var(--stroke-0, #4984C4)" stroke-width="1.33333" stroke-linecap="round" stroke-linejoin="round"/>
</g>
</svg>
