<svg preserveAspectRatio="none" width="100%" height="100%" overflow="visible" style="display: block;" viewBox="0 0 32 32" fill="none" xmlns="http://www.w3.org/2000/svg">
<g id="Frame">
<path id="Union" d="M16 1.33301C16.5334 1.33287 17.0164 1.65035 17.2266 2.14063C17.4367 2.63087 17.3337 3.19969 16.9658 3.58594C14.0861 6.60982 12.3577 10.5299 12.0508 14.667H14C14.7364 14.667 15.334 15.2636 15.334 16C15.334 16.7364 14.7364 17.333 14 17.333H12.0518C12.3231 20.9832 13.701 24.4639 16 27.3096C17.7803 25.1058 19.0224 22.5089 19.6113 19.7236C19.7637 19.0032 20.471 18.543 21.1914 18.6953C21.9117 18.8478 22.372 19.555 22.2197 20.2754C21.6642 22.9025 20.6023 25.3835 19.1084 27.5889C20.863 27.1189 22.4939 26.2573 23.873 25.0596C25.5473 23.6054 26.7858 21.7151 27.4512 19.5996C27.6721 18.8973 28.4207 18.5068 29.123 18.7275C29.8255 18.9485 30.216 19.697 29.9951 20.3994C29.1819 22.985 27.6684 25.2948 25.6221 27.0723C23.5756 28.8497 21.0765 30.0255 18.4023 30.4688C17.6145 30.5993 16.8206 30.6628 16.0283 30.6641C16.0192 30.6643 16.0101 30.666 16.001 30.666C15.9945 30.666 15.9879 30.6651 15.9814 30.665C14.1004 30.6621 12.2298 30.298 10.4736 29.583C7.96318 28.5608 5.78456 26.8629 4.18066 24.6777C2.5768 22.4926 1.60942 19.9055 1.38672 17.2041C1.35648 16.8372 1.34146 16.47 1.33887 16.1035C1.33624 16.0693 1.33398 16.0349 1.33398 16C1.33398 15.9588 1.33619 15.9181 1.33984 15.8779C1.35856 13.6231 1.89505 11.3963 2.91895 9.37402C4.14333 6.95582 6.01417 4.92439 8.32324 3.50488C10.6323 2.08541 13.2895 1.33379 16 1.33301ZM4.0791 17.333C4.31213 19.417 5.08695 21.4058 6.33008 23.0996C7.6423 24.8874 9.42461 26.2769 11.4785 27.1133C11.9389 27.3008 12.4099 27.4566 12.8867 27.585C10.8331 24.5514 9.61785 21.0134 9.37988 17.333H4.0791ZM24 1.33301C25.0607 1.33309 26.0781 1.75394 26.8281 2.50391C27.5783 3.25405 28 4.27214 28 5.33301V6.66699C29.4727 6.66699 30.6668 7.8604 30.667 9.33301V13.333C30.667 14.8058 29.4728 16 28 16H20C18.5274 15.9998 17.334 14.8057 17.334 13.333V9.33301C17.3342 7.86051 18.5275 6.66717 20 6.66699V5.33301C20 4.27214 20.4208 3.25405 21.1709 2.50391C21.921 1.75376 22.9391 1.33301 24 1.33301ZM12.8877 4.41211C11.7768 4.7109 10.709 5.1682 9.71973 5.77637C7.83041 6.93781 6.29963 8.60049 5.29785 10.5791C4.64765 11.8634 4.23847 13.2486 4.08008 14.667H9.37988C9.61762 10.9854 10.8331 7.4465 12.8877 4.41211ZM20 13.333H28V9.33301H20V13.333ZM24 3.99902C23.6464 3.99902 23.3067 4.1396 23.0566 4.38965C22.8066 4.6397 22.666 4.97939 22.666 5.33301V6.66699H25.333V5.33301C25.333 4.97939 25.1924 4.6397 24.9424 4.38965C24.6924 4.13978 24.3534 3.99911 24 3.99902Z" fill="url(#paint0_linear_143_1167)"/>
</g>
<defs>
<linearGradient id="paint0_linear_143_1167" x1="30.667" y1="15.9995" x2="1.33398" y2="15.9995" gradientUnits="userSpaceOnUse">
<stop stop-color="#F0532A"/>
<stop offset="0.32" stop-color="#ED4485"/>
<stop offset="0.68" stop-color="#B360A6"/>
<stop offset="1" stop-color="#4585C5"/>
</linearGradient>
</defs>
</svg>
