<svg preserveAspectRatio="none" width="100%" height="100%" overflow="visible" style="display: block;" viewBox="0 0 32 32" fill="none" xmlns="http://www.w3.org/2000/svg">
<g id="Frame">
<path id="Union" d="M18.7021 1.33398C19.287 1.33788 19.8657 1.45384 20.4062 1.67773C20.9577 1.90623 21.4592 2.24148 21.8809 2.66406L26.6621 7.44531C27.0867 7.86742 27.4238 8.36987 27.6533 8.92285C27.8826 9.47528 28.0007 10.0679 28 10.666V26.666C28 27.7268 27.5782 28.744 26.8281 29.4941C26.0781 30.2442 25.0607 30.6659 24 30.666H8C6.93913 30.666 5.92104 30.2443 5.1709 29.4941C4.42096 28.744 4 27.7267 4 26.666V5.33301C4 4.27214 4.42075 3.25405 5.1709 2.50391C5.92104 1.75376 6.93914 1.33301 8 1.33301H18.667C18.6788 1.33301 18.6905 1.33368 18.7021 1.33398ZM8 3.99902C7.64638 3.99902 7.30669 4.1396 7.05664 4.38965C6.80659 4.6397 6.66602 4.97939 6.66602 5.33301V26.666C6.66602 27.0195 6.8068 27.3584 7.05664 27.6084C7.30669 27.8584 7.64638 27.999 8 27.999H24C24.3535 27.9989 24.6924 27.8584 24.9424 27.6084C25.1923 27.3584 25.333 27.0196 25.333 26.666V11.999H20C19.2929 11.9989 18.6143 11.7188 18.1143 11.2188C17.6142 10.7187 17.3341 10.0401 17.334 9.33301V3.99902H8ZM19.0576 16.3916C19.5783 15.8709 20.4217 15.8709 20.9424 16.3916C21.4631 16.9123 21.4631 17.7557 20.9424 18.2764L15.6094 23.6104C15.0887 24.1309 14.2443 24.131 13.7236 23.6104L11.0576 20.9434C10.5369 20.4227 10.5369 19.5783 11.0576 19.0576C11.5782 18.5374 12.4218 18.5374 12.9424 19.0576L14.666 20.7812L19.0576 16.3916ZM20 9.33301H24.7783L20 4.55469V9.33301Z" fill="url(#paint0_linear_143_1497)"/>
</g>
<defs>
<linearGradient id="paint0_linear_143_1497" x1="28" y1="15.9995" x2="4" y2="15.9995" gradientUnits="userSpaceOnUse">
<stop stop-color="#F0532A"/>
<stop offset="0.32" stop-color="#ED4485"/>
<stop offset="0.68" stop-color="#B360A6"/>
<stop offset="1" stop-color="#4585C5"/>
</linearGradient>
</defs>
</svg>
