<svg width="40" height="30" viewBox="-1 -0.5 40 30" fill="none" xmlns="http://www.w3.org/2000/svg">
<path d="M32.1686 2.40099C29.7466 1.28968 27.1494 0.470909 24.4338 0.00196712C24.3844 -0.0070833 24.335 0.0155347 24.3095 0.0607708C23.9755 0.654861 23.6055 1.4299 23.3464 2.03908C20.4256 1.60181 17.5199 1.60181 14.659 2.03908C14.3999 1.41636 14.0164 0.654861 13.6809 0.0607708C13.6554 0.017044 13.606 -0.00557401 13.5566 0.00196712C10.8425 0.46941 8.2453 1.28818 5.82181 2.40099C5.80083 2.41003 5.78285 2.42513 5.77092 2.44471C0.844537 9.80462 -0.505005 16.9836 0.157035 24.0736C0.160031 24.1083 0.179502 24.1415 0.206464 24.1626C3.45675 26.5495 6.6052 27.9986 9.69519 28.9591C9.74465 28.9742 9.79704 28.9561 9.82851 28.9154C10.5595 27.9172 11.211 26.8647 11.7697 25.7579C11.8026 25.6931 11.7712 25.6162 11.7038 25.5905C10.6703 25.1985 9.6862 24.7205 8.73957 24.1777C8.6647 24.1339 8.6587 24.0268 8.72758 23.9756C8.92679 23.8263 9.12605 23.671 9.31626 23.5142C9.35068 23.4855 9.39863 23.4795 9.43909 23.4976C15.658 26.3369 22.3908 26.3369 28.5363 23.4976C28.5768 23.478 28.6248 23.484 28.6607 23.5127C28.8509 23.6695 29.0501 23.8263 29.2508 23.9756C29.3197 24.0268 29.3152 24.1339 29.2404 24.1777C28.2937 24.731 27.3096 25.1985 26.2746 25.589C26.2073 25.6147 26.1773 25.6931 26.2103 25.7579C26.7809 26.8631 27.4325 27.9156 28.1499 28.9139C28.1799 28.9561 28.2338 28.9742 28.2832 28.9591C31.3882 27.9986 34.5366 26.5495 37.7869 24.1626C37.8154 24.1415 37.8334 24.1098 37.8364 24.0751C38.6287 15.8783 36.5093 8.75817 32.218 2.44621C32.2075 2.42513 32.1896 2.41003 32.1686 2.40099ZM12.6984 19.7566C10.826 19.7566 9.28329 18.0376 9.28329 15.9266C9.28329 13.8155 10.7961 12.0966 12.6984 12.0966C14.6155 12.0966 16.1434 13.8306 16.1134 15.9266C16.1134 18.0376 14.6006 19.7566 12.6984 19.7566ZM25.325 19.7566C23.4527 19.7566 21.91 18.0376 21.91 15.9266C21.91 13.8155 23.4228 12.0966 25.325 12.0966C27.2423 12.0966 28.77 13.8306 28.7401 15.9266C28.7401 18.0376 27.2423 19.7566 25.325 19.7566Z" fill="#5865F2"/>
</svg>
