<svg preserveAspectRatio="none" width="100%" height="100%" overflow="visible" style="display: block;" viewBox="0 0 44 44.0844" fill="none" xmlns="http://www.w3.org/2000/svg">
<g id="WhatsApp 1">
<g id="Vector" filter="url(#filter0_f_143_6416)">
<path d="M13.6933 34.7668L14.2545 35.0993C16.6118 36.4982 19.3146 37.2383 22.0708 37.2395H22.0766C30.5411 37.2395 37.4298 30.3524 37.4333 21.8874C37.4348 17.7854 35.8389 13.928 32.9395 11.0263C31.5174 9.59525 29.8256 8.46051 27.962 7.68773C26.0985 6.91495 24.1001 6.51948 22.0826 6.52422C13.6117 6.52422 6.72273 13.4106 6.71971 21.8751C6.71554 24.7655 7.52948 27.598 9.06742 30.0452L9.4328 30.6258L7.88114 36.2906L13.6933 34.7668ZM3.44488 40.6791L6.0663 31.108C4.4496 28.307 3.59906 25.1293 3.60007 21.8738C3.60434 11.6895 11.8923 3.40407 22.0769 3.40407C27.0191 3.40659 31.6581 5.3299 35.1468 8.82121C38.6356 12.3125 40.5552 16.9532 40.5534 21.8887C40.5489 32.0723 32.2597 40.3592 22.0766 40.3592H22.0686C18.9766 40.3579 15.9383 39.5822 13.2395 38.1107L3.44488 40.6791Z" fill="var(--fill-0, #B3B3B3)"/>
</g>
<path id="Vector_2" d="M3.2576 40.4897L5.87903 30.9186C4.25955 28.1108 3.40888 24.9257 3.41279 21.6844C3.41706 11.5001 11.705 3.21465 21.8896 3.21465C26.8319 3.21716 31.4708 5.14048 34.9596 8.63178C38.4484 12.1231 40.3679 16.7638 40.3662 21.6992C40.3616 31.8829 32.0725 40.1698 21.8894 40.1698H21.8813C18.7893 40.1685 15.751 39.3928 13.0522 37.9212L3.2576 40.4897Z" fill="var(--fill-0, white)"/>
<g id="Vector_3">
</g>
<path id="Vector_4" d="M21.8924 6.33375C13.4215 6.33375 6.53252 13.2202 6.52951 21.6846C6.52533 24.575 7.33927 27.4075 8.87721 29.8548L9.24259 30.4356L7.69093 36.1003L13.5033 34.5763L14.0646 34.9088C16.4218 36.3078 19.1246 37.0476 21.8809 37.0491H21.8867C30.3511 37.0491 37.2401 30.1619 37.2433 21.6969C37.2497 19.6793 36.8558 17.6805 36.0845 15.8162C35.3131 13.9519 34.1796 12.2591 32.7496 10.8358C31.3274 9.40475 29.6356 8.26998 27.772 7.4972C25.9083 6.72442 23.9099 6.32897 21.8924 6.33375Z" fill="url(#paint0_linear_143_6416)"/>
<path id="Vector_5" fill-rule="evenodd" clip-rule="evenodd" d="M17.2714 13.9614C16.9254 13.1927 16.5613 13.1771 16.2326 13.1638L15.3476 13.153C15.0397 13.153 14.5395 13.2685 14.1166 13.7306C13.6937 14.1926 12.5007 15.3094 12.5007 17.5807C12.5007 19.8521 14.1551 22.0469 14.3856 22.3552C14.6161 22.6636 17.5793 27.4733 22.272 29.3238C26.1716 30.8616 26.9651 30.5558 27.8119 30.4789C28.6587 30.4021 30.5433 29.3622 30.9278 28.2842C31.3122 27.2061 31.3125 26.2825 31.1972 26.0894C31.082 25.8963 30.7741 25.7815 30.312 25.5505C29.85 25.3195 27.5806 24.2027 27.1575 24.0485C26.7343 23.8944 26.4267 23.8178 26.1186 24.2798C25.8105 24.7419 24.9268 25.7813 24.6573 26.0894C24.3879 26.3975 24.1189 26.4362 23.6569 26.2054C23.1948 25.9746 21.7082 25.4869 19.9443 23.9142C18.572 22.6905 17.6456 21.1793 17.3759 20.7175C17.1062 20.2556 17.3473 20.0055 17.5788 19.7755C17.786 19.5686 18.0404 19.2364 18.2716 18.9669C18.5029 18.6975 18.579 18.5048 18.7327 18.1972C18.8864 17.8896 18.8098 17.6194 18.6943 17.3886C18.5788 17.1578 17.6818 14.8744 17.2714 13.9614Z" fill="var(--fill-0, white)"/>
</g>
<defs>
<filter id="filter0_f_143_6416" x="1.67148" y="1.63067" width="40.6554" height="40.8218" filterUnits="userSpaceOnUse" color-interpolation-filters="sRGB">
<feFlood flood-opacity="0" result="BackgroundImageFix"/>
<feBlend mode="normal" in="SourceGraphic" in2="BackgroundImageFix" result="shape"/>
<feGaussianBlur stdDeviation="0.8867" result="effect1_foregroundBlur_143_6416"/>
</filter>
<linearGradient id="paint0_linear_143_6416" x1="21.5738" y1="8.17696" x2="21.7295" y2="34.4251" gradientUnits="userSpaceOnUse">
<stop stop-color="#57D163"/>
<stop offset="1" stop-color="#23B33A"/>
</linearGradient>
</defs>
</svg>
